<svg width="34" height="34" viewBox="0 0 34 34" fill="none" xmlns="http://www.w3.org/2000/svg">
    <path d="M17.2427 30.7497C18.9662 30.7497 20.5281 30.0488 21.6594 28.9174C22.7908 27.7843 23.4935 26.2224 23.4926 24.4998L23.4917 19.4996L20.9921 19.4996L20.993 24.4998C20.9912 26.5645 19.3109 28.2483 17.2427 28.2501C15.1753 28.2492 13.4932 26.5672 13.4923 24.4998L13.4932 19.4996L10.9936 19.4996L10.9927 24.4998C10.9927 27.9451 13.7973 30.7497 17.2427 30.7497ZM23.4926 9.50025C23.4917 6.05576 20.6872 3.2512 17.2427 3.25031C13.7955 3.25031 10.9927 6.05664 10.9927 9.50025L10.9936 14.5004L13.4932 14.5004L13.4923 9.50025C13.495 7.43462 15.1753 5.75082 17.2427 5.74993C19.3101 5.75082 20.9921 7.43285 20.993 9.50025L20.9921 14.5004L23.4917 14.5004L23.4926 9.50025Z" fill="white"/>
    <path d="M18.4925 24.5013L15.9925 24.5012L15.9928 9.49998L18.4928 9.50002L18.4925 24.5013Z" fill="white"/>
</svg>
